Coordinates
version=1
nRows=9
nColumns=63
inDegrees=yes

Units are S.I. units (second, meters, Newtons, ...)
If the header above contains a line with 'inDegrees', this indicates whether rotational values are in degrees (yes) or radians (no).

endheader
time	pelvis_tilt	pelvis_list	pelvis_rotation	pelvis_tx	pelvis_ty	pelvis_tz	hip_flexion_r	hip_adduction_r	hip_rotation_r	knee_angle_r	knee_angle_r_beta	ankle_angle_r	subtalar_angle_r	mtp_angle_r	hip_flexion_l	hip_adduction_l	hip_rotation_l	knee_angle_l	knee_angle_l_beta	ankle_angle_l	subtalar_angle_l	mtp_angle_l	L5_S1_Flex_Ext	L5_S1_Lat_Bending	L5_S1_axial_rotation	L4_L5_Flex_Ext	L4_L5_Lat_Bending	L4_L5_axial_rotation	L3_L4_Flex_Ext	L3_L4_Lat_Bending	L3_L4_axial_rotation	L2_L3_Flex_Ext	L2_L3_Lat_Bending	L2_L3_axial_rotation	L1_L2_Flex_Ext	L1_L2_Lat_Bending	L1_L2_axial_rotation	L1_T12_Flex_Ext	L1_T12_Lat_Bending	L1_T12_axial_rotation	Abs_r3	Abs_r2	Abs_r1	Abs_t1	Abs_t2	neck_flexion	neck_bending	neck_rotation	arm_flex_r	arm_add_r	arm_rot_r	elbow_flex_r	pro_sup_r	wrist_flex_r	wrist_dev_r	arm_flex_l	arm_add_l	arm_rot_l	elbow_flex_l	pro_sup_l	wrist_flex_l	wrist_dev_l
      1.25000000	     -3.20946700	     -0.85738814	    106.83062521	      0.34388914	      0.60063488	      0.94733687	      8.15965468	     -5.89151476	     -0.53528308	     24.04558666	      0.41967466	     34.74554571	      1.01214074	      0.00000000	      1.93590740	      4.98032713	    -18.14933785	     11.99854122	      0.20941405	     30.72947789	     14.70585563	      0.00000000	     -0.10014764	     -0.64993563	     -2.99984391	     -0.18598419	     -0.86441438	     -3.18733415	     -0.16453256	     -1.58025348	     -3.18733415	     -0.11445874	     -1.58025348	     -2.62486342	     -0.09299710	     -1.32534873	     -2.43737317	     -0.05722436	     -1.00675029	     -2.24988293	     -0.71534460	     -7.35220180	    -16.68423185	      0.00000000	      0.00000000	      2.77311631	      0.43269374	     -6.72606263	      5.87932208	    -11.23479861	     -5.08169257	    121.90902970	     85.85880249	    -21.59068730	      8.17174933	     31.20289936	     -8.10147250	     39.05377549	    100.64281777	     74.24157459	     -6.51644299	      5.93430493
      1.27083333	     -3.04914599	     -0.73847985	    106.81088644	      0.34337366	      0.60137395	      0.94668760	      7.94047836	     -5.66762097	     -0.47322370	     23.78523192	      0.41513061	     34.53020039	      0.83021177	      0.00000000	      1.53204113	      4.87106716	    -18.21746185	     11.44804056	      0.19980600	     30.29905791	     14.89291752	      0.00000000	     -0.08469295	     -0.61921922	     -2.87858520	     -0.15728327	     -0.82356156	     -3.05849677	     -0.13914205	     -1.50556961	     -3.05849677	     -0.09679557	     -1.50556961	     -2.51876205	     -0.07864587	     -1.26271184	     -2.33885047	     -0.04839355	     -0.95917057	     -2.15893890	     -0.60495326	     -7.00473167	    -16.00982730	      0.00000000	      0.00000000	      1.91689318	      0.16732465	     -7.73890266	      5.33786401	    -11.66051353	     -6.50687738	    122.99209092	     87.31251330	    -20.77247430	      9.83598942	     32.06887789	     -4.63281804	     38.12846095	     99.50865607	     68.09694027	     -1.92232356	      8.25348817
      1.29166667	     -2.51502527	     -0.67250174	    107.05516466	      0.34202011	      0.60184934	      0.94602311	      7.74409824	     -5.14649866	     -0.78498531	     23.33354622	      0.40724721	     34.24877319	      0.75581719	      0.00000000	      1.35443145	      4.40651231	    -17.95452053	     11.09950753	      0.19372295	     29.97147503	     14.87540283	      0.00000000	     -0.06405417	     -0.54120830	     -2.73264349	     -0.11895501	     -0.71980704	     -2.90343371	     -0.10523460	     -1.31589386	     -2.90343371	     -0.07320752	     -1.31589386	     -2.39106305	     -0.05948071	     -1.10363197	     -2.22027283	     -0.03660055	     -0.83833166	     -2.04948262	     -0.45753256	     -6.12225655	    -15.19814329	      0.00000000	      0.00000000	      1.16655232	     -0.40168682	     -9.48694123	      4.23569220	    -12.56244952	     -8.39660680	    124.55570755	     87.84685765	    -20.53856352	     11.03706851	     32.22133655	     -0.89853859	     36.49385484	     98.30062527	     64.34039691	      2.20983511	     12.43525420
      1.31250000	     -1.93168545	     -0.73426863	    107.41783694	      0.34038580	      0.60210936	      0.94542212	      7.73844909	     -4.63527658	     -1.18245226	     22.97666941	      0.40101853	     34.09271876	      0.67569794	      0.00000000	      1.29097541	      3.94802576	    -17.57888037	     10.68627552	      0.18651069	     29.66504050	     14.94806477	      0.00000000	     -0.02694982	     -0.45740625	     -2.71248955	     -0.05004850	     -0.60835031	     -2.88202014	     -0.04427585	     -1.11213755	     -2.88202014	     -0.03080094	     -1.11213755	     -2.37342835	     -0.02502560	     -0.93274282	     -2.20389776	     -0.01539912	     -0.70852228	     -2.03436716	     -0.19249984	     -5.17427094	    -15.08605312	      0.00000000	      0.00000000	      0.70254468	     -0.15714463	    -10.10223851	      3.12498409	    -13.36645236	     -9.81103328	    126.01238711	     88.00509654	    -20.79797881	     11.53929386	     31.33435484	      2.33118439	     34.38155706	     97.62149032	     61.49051200	      4.69682772	     15.34159502
      1.33333333	     -1.40083036	     -0.70695287	    108.10367722	      0.33862593	      0.60236430	      0.94661279	      7.79592517	     -4.23354672	     -1.86303426	     22.82995752	      0.39845793	     34.01954767	      0.84108560	      0.00000000	      1.55884266	      3.44869473	    -16.95935086	     10.95717238	      0.19123873	     29.52738206	     14.68642961	      0.00000000	     -0.03487160	     -0.37332398	     -2.81847798	     -0.06476006	     -0.49652090	     -2.99463285	     -0.05729056	     -0.90769993	     -2.99463285	     -0.03985476	     -0.90769993	     -2.46616823	     -0.03238177	     -0.76128227	     -2.29001336	     -0.01992563	     -0.57827885	     -2.11385849	     -0.24908439	     -4.22311556	    -15.67552898	      0.00000000	      0.00000000	      0.26121772	     -0.85354891	    -10.56984050	      2.69257073	    -13.89351427	    -10.91544120	    127.05504378	     88.02603234	    -22.11855871	     12.20497384	     30.45723619	      5.11068786	     32.20566234	     97.08246677	     57.36437753	      7.73350373	     19.16896857
      1.35416667	     -1.37885140	     -0.64785151	    108.27054475	      0.33815027	      0.60279635	      0.94814678	      7.95144802	     -4.23383370	     -1.94836965	     23.00257123	      0.40147060	     34.09602298	      0.79718023	      0.00000000	      1.55093618	      3.44946043	    -16.90666995	     10.96190467	      0.19132133	     29.21280496	     14.63981899	      0.00000000	     -0.07745073	     -0.36088300	     -2.90805654	     -0.14383376	     -0.47997439	     -3.08981008	     -0.12724381	     -0.87745092	     -3.08981008	     -0.08851844	     -0.87745092	     -2.54454948	     -0.07192075	     -0.73591261	     -2.36279594	     -0.04425535	     -0.55900776	     -2.18104241	     -0.55322285	     -4.08238064	    -16.17373808	      0.00000000	      0.00000000	      0.04636030	     -0.79623353	    -10.46538480	      2.90113023	    -13.68024323	    -11.74492331	    127.34761547	     87.96397692	    -22.67263099	     12.07454910	     29.39466360	      7.00563233	     31.23484366	     97.09670471	     56.74237044	      7.41471530	     18.88134098
      1.37500000	     -0.73608895	     -0.72124493	    109.51271187	      0.33608167	      0.60271595	      0.94989269	      8.04951549	     -3.86162335	     -3.48340578	     22.74331261	      0.39694569	     34.06696317	      1.19675119	      0.00000000	      2.00199751	      2.94827406	    -15.07774060	     11.10791665	      0.19386972	     29.17764246	     13.85228170	      0.00000000	     -0.06379151	     -0.27431498	     -3.23623214	     -0.11846722	     -0.36483892	     -3.43849664	     -0.10480308	     -0.66696944	     -3.43849664	     -0.07290732	     -0.66696944	     -2.83170312	     -0.05923680	     -0.55938310	     -2.62943861	     -0.03645047	     -0.42491390	     -2.42717410	     -0.45565639	     -3.10310590	    -17.99895227	      0.00000000	      0.00000000	     -0.56763822	     -1.28259305	    -10.36167450	      3.85314159	    -14.28979725	    -11.24628974	    127.03816464	     87.83039019	    -26.21956197	     11.29889411	     28.21677287	      8.89114088	     30.72792977	     97.33549265	     53.59303803	      5.28982211	     19.36484471
      1.39583333	     -0.63775681	     -0.64401429	    109.76912946	      0.33588249	      0.60292077	      0.95124505	      8.10197856	     -3.77906705	     -3.82704609	     22.76629908	      0.39734688	     34.05282561	      1.15333681	      0.00000000	      1.93458869	      2.88599707	    -14.59501828	     10.89803556	      0.19020660	     29.01093697	     13.70862581	      0.00000000	     -0.08052988	     -0.26421091	     -3.39508467	     -0.14955204	     -0.35140051	     -3.60727746	     -0.13230254	     -0.64240241	     -3.60727746	     -0.09203760	     -0.64240241	     -2.97069908	     -0.07478004	     -0.53877889	     -2.75850629	     -0.04601477	     -0.40926270	     -2.54631350	     -0.57521686	     -2.98880665	    -18.88244239	      0.00000000	      0.00000000	     -1.35662406	     -1.45475317	    -10.53043789	      5.16656204	    -14.18466002	    -11.23602571	    126.16649240	     87.50472357	    -26.51504010	     11.21422398	     27.68972636	     10.30292985	     30.64389237	     97.01318116	     52.74491425	      3.91972232	     18.50177031
      1.41666667	     -0.88072737	     -0.38286006	    110.09009769	      0.33633704	      0.60343030	      0.95297301	      7.87597530	     -3.96601143	     -4.34980144	     22.83457404	      0.39853850	     33.98098160	      1.11718469	      0.00000000	      1.70484826	      3.04217428	    -14.05802611	     10.89278523	      0.19011497	     28.84527977	     13.47461737	      0.00000000	     -0.13430885	     -0.28797100	     -3.64372907	     -0.24942496	     -0.38300143	     -3.87146214	     -0.22065601	     -0.70017269	     -3.87146214	     -0.15350158	     -0.70017269	     -3.18826294	     -0.12471920	     -0.58723047	     -2.96052987	     -0.07674408	     -0.44606708	     -2.73279681	     -0.95935466	     -3.25758556	    -20.26532799	      0.00000000	      0.00000000	     -2.16764517	     -1.80060743	     -9.81704291	      7.02822069	    -13.62992564	    -10.63041820	    124.88805876	     86.90817486	    -26.01350254	     11.53604927	     28.40510904	     10.28853280	     31.09694204	     96.67480285	     51.14214538	      2.20923933	     16.84715704
